HIERARCHY
ROOT Hips
{
  OFFSET 263.056 91.6644 -274.608
  CHANNELS 6 Xposition Yposition Zposition Zrotation Xrotation Yrotation
  JOINT LeftUpLeg
  {
    OFFSET 8.64259 1.95398 -2.38835
    CHANNELS 3 Zrotation Xrotation Yrotation
    JOINT LeftLeg
    {
      OFFSET 43.7702 0 0
      CHANNELS 3 Zrotation Xrotation Yrotation
      JOINT LeftFoot
      {
        OFFSET 40.6238 0 0
        CHANNELS 3 Zrotation Xrotation Yrotation
        JOINT LeftToeBase
        {
          OFFSET 12.7242 0 0
          CHANNELS 3 Zrotation Xrotation Yrotation
          End Site
          {
            OFFSET 0 0 0
          }
        }
      }
    }
  }
  JOINT RightUpLeg
  {
    OFFSET -8.2249 1.95398 -2.59336
    CHANNELS 3 Zrotation Xrotation Yrotation
    JOINT RightLeg
    {
      OFFSET 43.5653 0 0
      CHANNELS 3 Zrotation Xrotation Yrotation
      JOINT RightFoot
      {
        OFFSET 40.6238 0 0
        CHANNELS 3 Zrotation Xrotation Yrotation
        JOINT RightToeBase
        {
          OFFSET 12.7242 0 0
          CHANNELS 3 Zrotation Xrotation Yrotation
          End Site
          {
            OFFSET 0 0 0
          }
        }
      }
    }
  }
  JOINT Spine
  {
    OFFSET 0.165834 0.87714 6.61349
    CHANNELS 3 Zrotation Xrotation Yrotation
    JOINT Spine1
    {
      OFFSET 7.38963 1.71661e-005 0
      CHANNELS 3 Zrotation Xrotation Yrotation
      JOINT Spine2
      {
        OFFSET 11.9445 1.14441e-005 0
        CHANNELS 3 Zrotation Xrotation Yrotation
        JOINT Spine3
        {
          OFFSET 14.7254 4.19617e-005 0
          CHANNELS 3 Zrotation Xrotation Yrotation
          JOINT Spine4
          {
            OFFSET 10.9679 0 0
            CHANNELS 3 Zrotation Xrotation Yrotation
            JOINT RightShoulder
            {
              OFFSET 2.46616 -1.6653 3.69651
              CHANNELS 3 Zrotation Xrotation Yrotation
              JOINT RightArm
              {
                OFFSET 13.0012 0 0
                CHANNELS 3 Zrotation Xrotation Yrotation
                JOINT RightForeArm
                {
                  OFFSET 28.7848 1.52588e-005 0
                  CHANNELS 3 Zrotation Xrotation Yrotation
                  JOINT RightHand
                  {
                    OFFSET 26.5688 1.52588e-005 0
                    CHANNELS 3 Zrotation Xrotation Yrotation
                    End Site
                    {
                      OFFSET 0 0 0
                    }
                  }
                }
              }
            }
            JOINT LeftShoulder
            {
              OFFSET 2.38034 -1.29275 -3.7523
              CHANNELS 3 Zrotation Xrotation Yrotation
              JOINT LeftArm
              {
                OFFSET 16.3182 6.10352e-005 0
                CHANNELS 3 Zrotation Xrotation Yrotation
                JOINT LeftForeArm
                {
                  OFFSET 27.0901 0 0
                  CHANNELS 3 Zrotation Xrotation Yrotation
                  JOINT LeftHand
                  {
                    OFFSET 24.5451 1.52588e-005 0
                    CHANNELS 3 Zrotation Xrotation Yrotation
                    End Site
                    {
                      OFFSET 0 0 0
                    }
                  }
                }
              }
            }
            JOINT Neck
            {
              OFFSET 5.0226 -0.0266342 0
              CHANNELS 3 Zrotation Xrotation Yrotation
              JOINT Head
              {
                OFFSET 6.69364 2.86102e-005 0
                CHANNELS 3 Zrotation Xrotation Yrotation
                End Site
                {
                  OFFSET 0 0 0
                }
              }
            }
          }
        }
      }
    }
  }
}
MOTION
Frames:	18
Frame Time:	0.0416667
-45.5929 83.1166 -44.4991 108.003 -38.3318 105.09 -167.839 34.5075 89.3822 -35.9271 13.6939 -6.1611 55.5661 -2.25359 4.02541 5.49019 -21.9251 -9.0443 168.523 40.2666 94.6519 -81.8785 4.31408 -0.498503 55.3308 -1.48092 -0.903297 29.5895 -0.260286 5.56242 0.750826 9.45444 -90.3737 7.9693 1.33537 -0.812274 -3.70127 1.29833 -0.870264 -26.2414 1.51775 -0.373317 -6.22872 1.51776 -0.373312 80.5926 -50.0321 -115.002 18.007 -4.07931 10.8633 12.1764 2.99198 -79.7764 -17.71 -0.705626 -1.07183 -95.3812 -39.5134 67.2334 -45.4494 4.25008 15.2627 7.08716 5.41214 -43.4908 20.0523 1.8423 5.35578 -17.0323 -19.6606 -5.04735 22.7275 -21.1145 -6.67926 
-42.6871 81.9417 -41.2166 106.987 -37.876 102.666 -168.531 38.053 86.9341 -44.4926 13.8436 -4.55829 54.4376 -1.05991 7.61287 16.2766 -10.3998 -11.7016 170.565 43.7817 92.0737 -75.4115 5.79819 -0.168335 58.7155 -1.85867 -1.07594 33.7878 0.232766 5.73794 0.515939 9.52762 -90.1332 7.82033 0.971846 -0.315329 -3.85031 0.957041 -0.357803 -26.3883 1.02169 -0.00863368 -6.37567 1.02169 -0.00864213 80.4889 -50.849 -114.84 15.7852 -4.52372 6.98524 11.04 4.07448 -77.0944 -16.6255 -0.739119 -0.385835 -96.1533 -39.4272 65.9302 -44.9768 5.38534 16.1978 7.33665 8.62556 -38.9828 18.0601 1.80262 6.11672 -14.069 -19.4602 -5.2672 21.3151 -20.6874 -6.91083 
-40.2155 81.5465 -38.0293 107.279 -35.5378 101.067 -168.5 38.0129 85.3056 -48.5479 13.98 -4.20227 53.6234 -1.5197 7.50084 23.7906 -3.09444 -13.4949 172.743 42.8895 88.5403 -63.1076 7.25104 0.742023 60.3569 -1.72913 -0.96422 30.4881 -0.306042 8.57195 0.297223 9.88497 -89.9978 7.10401 0.594534 -0.0220759 -4.56682 0.592981 -0.0482273 -27.103 0.573685 0.157629 -7.09036 0.573689 0.157638 79.4214 -51.1662 -116.276 14.1006 -2.39042 4.99739 10.8289 5.44455 -75.0481 -14.1671 -0.644867 -0.00665325 -97.8443 -39.44 63.1711 -42.8279 6.86478 15.7488 5.81298 9.69892 -34.4227 15.9315 1.40917 4.91891 -9.64016 -20.0176 -4.85498 19.572 -20.9023 -7.04468 
-37.2199 80.7229 -34.9258 107.798 -36.5876 101.764 -167.416 39.3887 86.1414 -56.0068 12.5502 -3.99616 55.5435 0.709704 8.88477 34.0448 6.02069 -16.3645 175.655 40.8815 88.0195 -47.7302 5.70029 1.33117 55.8486 0.2837 0.401783 21.1565 -1.7491 10.1262 0.579278 10.0951 -90.1241 6.68514 1.10421 -0.287246 -4.98538 1.09048 -0.335572 -27.5243 1.13947 0.0579347 -7.51162 1.13947 0.057928 78.5474 -49.935 -118.059 13.4931 -0.303763 5.45139 9.1554 5.05277 -73.139 -14.246 -0.544465 -0.849251 -98.5378 -39.4757 62.0603 -41.4473 8.44027 14.9207 4.28168 10.6536 -30.5931 14.2791 1.23094 4.64443 -7.83509 -20.6074 -3.60575 19.5385 -21.4309 -6.90392 
-34.1975 79.9411 -31.8781 106.997 -37.4235 102.35 -166.512 40.7332 87.0942 -62.6237 10.9549 -3.49588 60.5611 5.8414 10.4444 36.1976 7.84486 -15.3072 177.779 37.869 88.5848 -29.6863 -1.30262 1.5616 46.0394 3.68403 3.45092 17.5501 -1.66483 5.63304 0.816444 10.1017 -90.3012 6.67415 1.50246 -0.651031 -4.99613 1.47235 -0.716538 -27.5381 1.62864 -0.16927 -7.52547 1.62865 -0.169273 78.6486 -50.1561 -117.819 11.9247 -0.208097 4.63325 6.49019 4.04466 -70.8558 -15.4402 -0.636695 -0.494629 -98.531 -39.4004 62.0392 -40.8853 7.98957 15.706 4.29083 11.1472 -29.5301 14.486 1.30383 5.0184 -8.36734 -20.549 -3.49732 20.6651 -21.4013 -6.56914 
-31.6341 79.7089 -28.7835 105.863 -36.1781 101.984 -166.821 40.7332 87.5784 -66.5276 10.2269 -2.8354 63.836 9.65219 11.6316 38.229 9.58648 -14.9285 178.148 34.679 88.6021 -17.1056 -2.54453 2.06744 38.0494 5.57096 5.75138 22.5171 -0.955855 4.88906 0.697161 10.1404 -90.4333 6.59736 1.20832 -0.898966 -5.07338 1.16757 -0.951277 -27.6121 1.4226 -0.494225 -7.59943 1.42261 -0.49421 77.723 -50.2955 -119.112 9.72715 -0.777342 3.35992 4.13407 2.77373 -67.2856 -16.4913 -0.785427 0.182268 -97.6495 -39.5298 63.5258 -40.4756 6.47505 17.1334 5.5136 11.1153 -31.1178 14.5268 1.48935 6.23701 -8.28602 -20.2109 -1.81994 20.8158 -21.3546 -7.38316 
-29.3563 79.0242 -25.3971 104.615 -33.764 100.522 -167.936 42.0241 87.6712 -71.5319 12.9173 -2.10219 61.8446 8.31874 12.3941 45.4118 15.9771 -13.0165 176.988 36.0254 88.1614 -19.965 1.19494 2.83198 37.8236 5.19366 5.45212 17.2308 -1.82216 6.65172 0.63005 10.1627 -90.4528 6.55203 1.06608 -0.930927 -5.11887 1.02408 -0.976955 -27.6563 1.29656 -0.567468 -7.64368 1.29656 -0.567476 76.826 -51.9366 -119.701 7.40924 -0.908844 3.63853 2.21457 1.35301 -65.9447 -16.6596 -0.91929 1.11568 -97.5888 -38.7795 63.3112 -39.5254 5.92755 19.2556 5.92538 10.4156 -32.9337 16.0689 1.68873 6.5579 -8.8995 -20.4589 -3.37656 22.088 -21.4422 -6.69902 
-27.7454 78.4547 -22.1289 103.433 -30.1873 98.8526 -169.893 44.3198 88.0359 -76.6049 16.2791 -1.26885 59.7856 5.77808 10.1516 43.6816 15.5765 -5.64724 175.652 39.1143 87.5946 -29.6072 0.682738 3.21819 44.5393 3.78951 3.61092 13.1318 -3.07953 10.369 0.506343 10.2233 -90.5271 6.42969 0.787914 -1.06543 -5.24148 0.740241 -1.09908 -27.7764 1.07168 -0.779382 -7.7638 1.07167 -0.779396 77.8439 -52.2188 -118.127 6.84104 -0.313255 3.10933 0.456222 0.475159 -63.5819 -15.9306 -0.872873 1.14347 -97.7767 -38.1362 62.728 -38.0137 6.10083 20.3542 6.13074 10.2717 -33.9915 15.6375 1.64319 6.53631 -8.45749 -21.3916 -4.12089 22.6002 -22.2471 -6.43106 
-26.2284 77.41 -19.1041 102.63 -27.1314 98.5115 -172.715 47.4713 90.0801 -82.0098 20.4758 -0.623321 56.4356 2.14501 8.43663 41.6943 14.4727 1.07473 174.648 43.6731 88.1253 -41.1874 0.975073 2.94953 50.3655 1.94898 1.75272 15.7452 -2.40724 8.6575 0.479135 10.2827 -90.6608 6.31083 0.677554 -1.32337 -5.36063 0.618643 -1.35191 -27.8935 1.04394 -1.05859 -7.88084 1.04393 -1.0586 78.0246 -52.3865 -117.799 6.42998 0.834924 3.24347 -3.45723 -1.52696 -61.9607 -13.8724 -0.74211 1.10672 -97.4514 -37.3968 62.9494 -36.2954 6.53933 21.4835 7.0182 11.1394 -35.6925 15.3538 1.58102 6.31923 -7.97421 -22.2724 -5.04265 23.0886 -22.9402 -6.00893 
-24.6872 76.0516 -16.4148 102.903 -25.9174 99.3696 -175.569 49.1521 93.2869 -86.4553 23.245 -0.189353 55.8146 1.70827 9.2029 43.2145 16.0379 0.301147 173.414 46.7338 90.0264 -49.2928 0.929019 2.33086 52.2849 0.997857 0.959418 19.4199 -1.96519 9.47084 0.584863 10.4567 -90.8395 5.96344 0.81564 -1.67481 -5.70838 0.741133 -1.70908 -28.2395 1.28124 -1.35233 -8.22682 1.28125 -1.35233 77.0307 -51.6368 -119.537 5.49578 1.99728 3.60021 -6.54126 -3.68844 -60.1668 -15.2355 -0.851191 1.38748 -97.4103 -37.272 62.9638 -34.8543 6.4323 22.5699 7.26148 10.5107 -37.1427 15.6678 1.63583 6.47433 -6.58128 -22.7376 -4.84113 22.9795 -23.2633 -5.76386 
-23.5979 75.4761 -14.1032 103.208 -24.8756 99.6059 -176.652 49.3603 95.0164 -88.6531 23.9307 0.05414 53.5958 0.704452 9.82443 45.8914 19.3717 2.17066 171.905 47.3306 90.8482 -52.1885 2.77732 3.07994 54.3434 0.505987 0.614504 17.765 -2.55737 11.5653 0.591886 10.6584 -90.9235 5.55982 0.797833 -1.83356 -6.11222 0.716366 -1.86688 -28.6418 1.31194 -1.50912 -8.62912 1.31195 -1.5091 76.0587 -51.415 -121.026 3.4847 1.76079 2.06117 -5.44121 -3.40478 -56.4167 -14.5638 -0.82733 1.48001 -97.4479 -37.0622 62.8098 -34.0015 6.54351 23.3016 7.57778 10.6752 -37.9662 16.3465 1.77758 6.9282 -4.96258 -23.1772 -4.4579 22.0628 -23.6034 -5.84129 
-22.1463 74.0365 -11.4726 103.167 -23.7735 98.9006 -176.635 50.2867 95.68 -93.7241 22.9271 0.269943 51.9332 -0.489207 9.24955 48.914 22.3148 0.602383 170.457 50.0946 91.3521 -57.8849 2.40436 2.70389 56.325 -0.403885 -0.0618266 21.1982 -1.79376 10.1531 0.574369 10.7543 -90.9639 5.36752 0.74758 -1.90906 -6.30464 0.662856 -1.94011 -28.8331 1.2867 -1.59625 -8.82047 1.2867 -1.59626 76.2546 -51.2211 -120.832 2.13316 1.89004 0.896937 -7.24085 -5.08707 -54.2021 -14.6796 -0.914446 2.16681 -97.4923 -37.0558 62.7328 -33.105 7.72358 23.6586 7.23074 10.9078 -38.0161 14.8625 1.76947 7.83346 -4.51163 -23.5712 -3.73796 21.9652 -24.0796 -6.08595 
-20.5874 72.3222 -9.27555 103.469 -23.027 98.6945 -176.998 50.4862 96.5415 -99.2618 24.1683 0.236163 48.3056 -3.46333 8.05373 55.9176 29.1491 -1.19309 168.366 52.5206 92.3143 -63.5737 2.84591 2.61561 58.9538 -1.30197 -0.669894 21.5184 -1.743 10.1104 0.65823 10.8255 -91.091 5.22581 0.863838 -2.1588 -6.4467 0.76804 -2.19472 -28.9734 1.4726 -1.79956 -8.9608 1.47262 -1.79956 77.4014 -50.5038 -119.49 1.4972 1.75863 -0.209491 -7.72899 -6.6505 -50.9912 -13.7641 -0.955352 3.00298 -98.1187 -37.3472 61.8168 -32.2878 8.5377 24.2397 7.23702 11.7794 -37.5696 13.7403 1.48881 6.7887 -4.09928 -24.3187 -2.83591 21.6997 -24.8786 -6.12739 
-18.9308 70.473 -7.46541 103.762 -22.8755 99.1205 -177.764 50.0997 98.0343 -104.356 26.8146 0.0761324 45.4484 -7.06249 4.93249 56.9807 31.5494 1.99028 166.801 54.8097 94.3257 -69.7601 4.01651 2.05955 61.051 -2.04155 -1.11901 22.6212 -1.6667 10.9061 0.75657 10.8883 -91.2123 5.10148 1.01126 -2.3977 -6.57136 0.904802 -2.43986 -29.0966 1.68501 -1.98316 -9.08397 1.685 -1.98317 77.2001 -49.6852 -120.143 0.762092 1.96566 -0.446222 -7.78338 -7.66383 -48.4379 -13.2152 -0.924999 3.03793 -98.0217 -37.3136 61.9631 -32.2453 8.79862 25.1734 6.81417 11.4665 -37.3934 14.5163 1.53897 6.57272 -3.75613 -24.6221 -2.02475 21.7866 -25.2779 -6.27389 
-17.3881 68.5893 -5.87927 103.702 -22.3769 99.6394 -178.661 49.2275 99.5797 -107.486 29.7928 -0.276135 41.4854 -10.9968 1.04622 57.7856 33.545 4.54456 162.934 56.6502 97.2569 -75.6679 3.77976 1.86831 64.4959 -3.21798 -1.78571 24.64 -1.3918 11.3508 0.825941 10.9161 -91.3444 5.04655 1.09601 -2.65735 -6.62674 0.978033 -2.70297 -29.1495 1.8438 -2.20543 -9.13683 1.84382 -2.20542 77.2729 -49.5788 -120.083 0.0390358 2.08842 -1.07767 -8.67317 -9.3725 -46.4297 -13.0706 -0.945725 3.33258 -97.8777 -37.3207 62.2056 -31.8812 9.17823 26.0956 7.0739 12.2522 -37.4442 14.5335 1.48593 6.20836 -3.68785 -25.0607 -1.91188 21.9873 -25.7425 -6.37359 
-16.0824 66.8851 -4.32612 103.595 -21.962 99.3753 -178.736 47.7195 99.3728 -108.654 30.5233 -0.419942 39.3444 -12.839 -1.8332 62.9223 41.805 9.12445 160.865 58.6198 99.4868 -81.0917 4.69628 0.898779 67.018 -4.16039 -2.24304 31.5209 -0.240955 10.9359 0.853922 10.9476 -91.4554 4.98344 1.10696 -2.87416 -6.69032 0.979438 -2.92005 -29.2101 1.91937 -2.40901 -9.19742 1.91935 -2.40902 77.8926 -48.6237 -119.592 -0.20461 2.17591 -1.54387 -9.33048 -11.4908 -43.8549 -12.9748 -0.887045 2.82337 -98.3174 -37.7374 61.6606 -31.7323 9.66069 27.0034 6.78516 12.3534 -37.3558 14.7843 1.53423 6.36973 -2.63293 -25.5723 -0.589972 21.5573 -26.3463 -6.46297 
-14.8585 65.2592 -3.02083 103.456 -21.6871 98.9973 -177.627 46.3326 98.6497 -109.181 30.823 -0.561707 39.1692 -12.2779 0.593532 64.596 54.3452 24.2025 158.193 60.2754 101.748 -85.6681 5.46622 0.225158 69.2779 -4.94391 -2.57714 35.3946 0.335625 11.1201 0.904064 10.972 -91.5402 4.93514 1.17279 -3.0405 -6.73895 1.03791 -3.08912 -29.2569 2.03209 -2.54796 -9.24425 2.03208 -2.54797 78.3442 -47.8896 -119.243 -0.527437 2.25983 -1.40813 -9.07799 -12.4972 -41.9137 -12.0426 -0.49895 -0.749296 -98.584 -37.9698 61.3245 -31.5954 10.5346 27.6441 6.33657 12.8567 -36.7906 14.8232 1.53345 6.33881 -1.72603 -26.177 0.493647 21.3818 -27.0492 -6.58004 
-13.7305 63.7726 -1.90967 103.101 -21.3133 98.8717 -177.374 45.6901 98.6932 -111.467 28.4097 -0.323092 41.2 -9.1787 3.77648 68.6798 58.6193 22.5958 154.427 61.5426 104.775 -89.4797 5.1831 -0.403683 70.9732 -5.75809 -2.93595 37.5597 0.665778 8.60227 0.953962 10.9728 -91.6623 4.93397 1.22252 -3.28088 -6.74067 1.07702 -3.33143 -29.2553 2.15169 -2.7624 -9.24261 2.15167 -2.76242 78.384 -47.3236 -119.434 -0.775061 3.07133 -0.900126 -10.2739 -14.98 -40.1681 -9.78526 -0.435804 -0.854914 -98.7513 -38.1393 61.1252 -31.6538 10.4443 28.5245 6.43962 13.3769 -36.5015 14.8847 1.6048 6.76832 -0.616035 -26.706 1.58287 21.1762 -27.7143 -6.83733 
